PathFileType	4	(X/Y/Z)	C:/Users/opensim2020/Desktop/walking_exp_matlab/subject06_cal10_run.trc																																																																																																																																																	
DataRate	CameraRate	NumFrames	NumMarkers	Units	OrigDataRate	OrigDataStartFrame	OrigNumFrames																																																																																																																																													
100	100	8	49	mm	100	228	118																																																																																																																																													
Frame#	Time	LKNE			RTIB			RFRM			RWRA			LTHI			RKNE			RELB			RFHD			LWRA			RUPA			STRN			RASI			CLAV			RSHO			LASI			RTHI			RBHD			LBHD			C7			RWRB			RFIN			RTOE			LSHO			RBAK			LTIB			RANK			LFIN			LANK			RHEE			T10			LHEE			LTOE			LFHD			LPSI			RPSI			LUPA			LELB			LFRM			LWRB			*39			*40			*41			*42			*43			*44			*45			*46			*47			*48		
		X1	Y1	Z1	X2	Y2	Z2	X3	Y3	Z3	X4	Y4	Z4	X5	Y5	Z5	X6	Y6	Z6	X7	Y7	Z7	X8	Y8	Z8	X9	Y9	Z9	X10	Y10	Z10	X11	Y11	Z11	X12	Y12	Z12	X13	Y13	Z13	X14	Y14	Z14	X15	Y15	Z15	X16	Y16	Z16	X17	Y17	Z17	X18	Y18	Z18	X19	Y19	Z19	X20	Y20	Z20	X21	Y21	Z21	X22	Y22	Z22	X23	Y23	Z23	X24	Y24	Z24	X25	Y25	Z25	X26	Y26	Z26	X27	Y27	Z27	X28	Y28	Z28	X29	Y29	Z29	X30	Y30	Z30	X31	Y31	Z31	X32	Y32	Z32	X33	Y33	Z33	X34	Y34	Z34	X35	Y35	Z35	X36	Y36	Z36	X37	Y37	Z37	X38	Y38	Z38	X39	Y39	Z39	X40	Y40	Z40	X41	Y41	Z41	X42	Y42	Z42	X43	Y43	Z43	X44	Y44	Z44	X45	Y45	Z45	X46	Y46	Z46	X47	Y47	Z47	X48	Y48	Z48	X49	Y49	Z49
																																																																																																																																																				
60	0.59	297.21228	573.36035	132.25226	-224.35297	402.01123	367.57294	249.64499	1162.98096	481.93365	292.91852	1218.49609	358.36279	216.41055	709.2207	88.6864	5.71408	544.87805	371.8298	189.0507	1185.39661	563.76123	275.99963	1685.39392	314.8241	139.31531	1170.80713	67.79285	181.85661	1292.83521	531.48083	258.13953	1229.99219	234.94637	208.99071	987.53497	365.59702	232.06961	1408.94604	240.97382	219.10059	1452.76892	401.68134	204.9666	997.98969	156.28516	52.2058	663.84326	399.38824	141.59088	1641.81458	313.99603	139.29648	1645.29285	184.47479	133.87051	1495.47144	259.81116	325.06998	1163.21057	373.24048	370.21201	1212.56177	327.31366	-377.12601	150.02603	301.86218	146.33711	1461.47046	103.30742	62.46463	1338.38477	358.63907	329.64914	323.11786	161.22746	-384.88828	311.50549	326.84528	206.75064	1104.89612	52.63276	373.32828	159.11952	216.15038	-418.87109	341.31738	287.00641	64.92132	1176.85901	282.07376	336.34204	153.16573	266.02332	523.94611	118.96804	237.65953	274.28195	1694.34351	182.71861	56.90017	1046.09412	184.51065	68.11594	1038.01514	350.96048	16.76254	1346.98938	17.33429	-61.21951	1276.64783	-8.2464	27.66822	1180.32629	-2.96119	116.98062	1113.27161	33.90709	NaN	NaN	NaN	NaN	NaN	NaN	176.69173	1738.31238	242.16821	NaN	NaN	NaN	NaN	NaN	NaN	NaN	NaN	NaN	NaN	NaN	NaN	NaN	NaN	NaN	NaN	NaN	NaN	NaN	NaN	NaN
61	0.6	327.36703	565.66925	134.32271	-176.30583	399.7207	369.40195	284.71313	1158.46521	484.36145	331.21741	1208.32104	359.49591	248.77396	703.53265	90.76345	55.07309	538.48151	373.54556	222.73624	1184.67371	564.14734	313.77359	1682.84973	313.65781	182.37524	1165.96143	69.97366	218.21657	1292.37366	531.99316	296.47852	1226.9259	235.30046	247.47691	986.05841	367.44394	270.70697	1405.95422	240.31398	258.05069	1450.40698	400.66885	243.3429	995.57587	157.82733	97.93609	658.9035	400.86517	179.39149	1638.73914	312.44446	177.6358	1642.13977	182.90273	172.36768	1492.49646	258.41647	362.17157	1153.19165	377.09811	409.06958	1199.86682	330.15552	-330.43539	154.71382	307.73532	185.48265	1457.59778	101.95772	100.68583	1336.77246	358.05783	357.77426	315.31454	164.62712	-340.28235	314.91605	329.55408	250.85944	1100.03149	56.82332	399.36346	150.8116	219.39471	-375.33023	344.63892	289.05508	102.81245	1174.9259	283.0311	362.46759	146.1351	268.86649	548.46906	106.0833	242.37534	312.43268	1691.64832	181.48863	95.03366	1042.89673	187.40529	106.538	1035.18164	353.72095	57.31408	1340.35986	16.12367	-18.83193	1267.8822	-9.41103	71.24227	1172.73425	-1.90728	161.10591	1107.59692	36.76254	NaN	NaN	NaN	NaN	NaN	NaN	214.55681	1735.30188	240.66484	NaN	NaN	NaN	NaN	NaN	NaN	NaN	NaN	NaN	NaN	NaN	NaN	NaN	NaN	NaN	NaN	NaN	NaN	NaN	NaN	NaN
62	0.61	357.73938	557.53412	136.3835	-126.88553	396.45502	371.56528	319.1857	1152.67212	486.81287	369.9476	1196.82593	361.47131	282.14911	698.21985	93.84679	105.55907	531.03583	375.37897	256.02563	1183.29382	564.34869	351.33398	1679.2345	312.57803	226.36629	1159.99841	72.02781	252.93652	1291.13293	531.00641	334.93277	1222.80249	235.58734	285.79123	983.60126	369.54947	309.48096	1401.98914	239.7245	296.6441	1447.16467	399.34738	281.70279	992.21136	159.14914	144.14735	652.94238	402.612	217.36296	1634.72937	310.90698	215.87843	1638.04529	181.36391	210.76143	1488.63611	256.87326	398.68695	1141.35217	381.39642	447.94107	1184.98413	333.80267	-281.97455	158.34045	314.28409	224.35506	1452.59644	100.69538	138.76804	1334.42664	357.54779	383.36728	306.36078	168.01193	-293.68405	317.46121	332.48074	295.6604	1094.77148	60.75615	421.1438	141.0578	222.2684	-329.60977	346.8024	291.32535	140.94421	1172.21655	284.24997	383.73776	137.19786	271.19983	568.7182	92.35437	246.94467	350.52808	1687.96252	180.4917	132.69374	1039.00757	190.54189	144.85039	1031.63367	356.50812	98.37538	1332.40674	14.58691	24.27022	1257.65527	-10.83617	115.77381	1163.8429	-1.18244	206.62457	1100.69604	39.85893	NaN	NaN	NaN	NaN	NaN	NaN	252.29848	1731.38843	239.24628	NaN	NaN	NaN	NaN	NaN	NaN	NaN	NaN	NaN	NaN	NaN	NaN	NaN	NaN	NaN	NaN	NaN	NaN	NaN	NaN	NaN
63	0.62	388.90955	549.18542	138.6021	-76.18227	392.45502	374.0983	352.99756	1145.46936	489.37262	408.31653	1183.6908	364.03171	316.5195	692.77722	97.72783	157.0993	522.70825	377.63052	288.29114	1181.02588	563.90723	388.68671	1674.65149	311.67914	270.81824	1152.94641	74.19193	287.88297	1289.25183	530.58087	373.31192	1217.81995	236.41428	323.79562	979.98993	371.99866	348.29156	1397.04822	239.172	334.75214	1443.06006	398.00507	320.13577	987.83716	160.34425	190.82875	646.05841	404.7309	254.90709	1629.69141	309.48627	253.97757	1632.93652	179.89601	249.16168	1483.7334	255.15341	434.8103	1127.86963	386.42639	486.36359	1167.974	338.52264	-232.00677	160.69649	321.43002	263.61566	1446.65332	99.42574	176.57401	1331.26672	357.03351	406.30389	296.45523	171.15167	-245.13773	318.76105	335.59494	341.01929	1088.32483	65.16467	438.60089	130.11325	225.01843	-281.59619	347.8175	293.72513	178.94234	1168.72644	285.45691	401.06073	126.90656	273.52527	584.71741	77.60032	249.93228	388.492	1683.29346	179.58592	170.4478	1033.94971	193.46411	182.74498	1027.03796	359.28802	139.9852	1323.10693	12.85777	68.19112	1245.99939	-12.63437	161.46048	1153.59216	-0.80719	252.88718	1092.58984	42.73954	NaN	NaN	NaN	NaN	NaN	NaN	289.867	1726.45361	237.92499	NaN	NaN	NaN	NaN	NaN	NaN	NaN	NaN	NaN	NaN	NaN	NaN	NaN	NaN	NaN	NaN	NaN	NaN	NaN	NaN	NaN
64	0.63	421.01675	540.61761	141.10767	-23.72723	387.35318	377.02798	386.23816	1136.90491	492.17337	446.38657	1169.12134	367.51407	352.09589	686.83179	102.24834	209.70842	513.60034	380.63272	320.10239	1177.70642	563.26331	425.59647	1669.00293	310.83218	315.83789	1145.15173	76.34926	321.98212	1286.12146	529.54553	411.76819	1211.76086	237.44565	361.83859	975.34326	374.66702	387.17804	1391.15637	238.69879	372.19174	1438.02795	396.71487	358.58261	982.36957	161.5148	237.91461	638.21075	407.43863	292.18582	1623.67664	308.07632	291.96262	1626.823	178.49641	287.29803	1477.82349	253.34413	469.37402	1112.58752	391.44992	524.3717	1149.26917	344.23282	-180.46074	161.79492	328.95593	302.88034	1439.56018	98.1347	214.15831	1327.1449	356.29654	427.77032	286.12234	173.20569	-194.62321	318.79788	339.15213	387.30286	1081.86816	68.88244	452.55533	118.4447	227.17778	-231.5233	347.55252	296.52139	216.77943	1164.23755	286.53696	415.00772	116.65411	275.69156	596.3064	60.53291	252.40869	426.30008	1677.68713	178.87933	208.16264	1027.70874	196.12903	221.29295	1021.46149	361.50861	182.21506	1312.47571	10.76262	112.89123	1233.13	-14.68429	207.54814	1142.62671	-0.42387	298.85947	1084.41479	45.13655	NaN	NaN	NaN	NaN	NaN	NaN	327.15631	1720.4939	236.61383	NaN	NaN	NaN	NaN	NaN	NaN	NaN	NaN	NaN	NaN	NaN	NaN	NaN	NaN	NaN	NaN	NaN	NaN	NaN	NaN	NaN
65	0.64	453.63474	531.42804	143.74866	30.35828	381.48706	380.43088	418.84576	1127.20996	495.25955	484.06787	1153.31885	371.9556	388.99429	679.98444	107.09888	263.13065	503.82947	384.20697	350.96329	1173.31812	562.02979	462.27271	1662.60193	310.40482	361.45032	1136.97485	78.51687	355.35394	1282.10425	528.18109	450.63892	1204.74023	238.48871	399.48361	969.52661	377.46182	426.10397	1384.32349	238.45842	408.96655	1432.10449	395.67139	396.98413	975.76501	163.00401	285.37363	629.64276	410.68051	329.01529	1616.68091	306.64124	329.81113	1619.64221	177.04921	325.39886	1470.83899	251.43059	503.38791	1096.11108	397.47577	561.63623	1129.09583	351.46344	-126.72157	161.64832	336.51221	342.55621	1431.29492	96.74453	251.57506	1321.94324	355.1254	448.72244	275.60138	173.89122	-142.2198	317.59772	343.16406	434.43497	1074.73047	73.21571	463.84265	106.4247	227.80676	-179.41951	346.08881	300.03229	255.15222	1158.53345	287.36902	425.74295	106.28266	276.08478	604.12738	41.48407	255.17244	463.90707	1671.10095	178.44336	246.00137	1020.5271	198.67613	259.18661	1014.83649	363.77188	225.2267	1300.3761	8.51554	158.49484	1219.27441	-17.0742	254.84387	1130.77234	-0.23248	346.08557	1075.22839	48.02855	NaN	NaN	NaN	NaN	NaN	NaN	364.17059	1713.55139	235.34398	NaN	NaN	NaN	NaN	NaN	NaN	NaN	NaN	NaN	NaN	NaN	NaN	NaN	NaN	NaN	NaN	NaN	NaN	NaN	NaN	NaN
66	0.65	485.50461	520.65466	145.62839	86.08488	375.09937	384.22064	450.53625	1116.23145	498.71576	520.61395	1136.26978	377.03772	426.3262	671.60925	111.06725	317.53488	493.75146	388.48441	381.20557	1167.92188	560.62225	498.53021	1655.37024	310.21527	407.4191	1128.32397	80.70445	388.35199	1276.83765	527.21478	489.70847	1196.88391	239.6965	437.06558	962.77148	380.12225	464.99911	1376.63562	238.41006	444.91318	1425.32312	395.00876	435.52069	967.98303	164.89818	333.27121	620.6004	414.51605	365.52679	1608.72388	305.30795	367.59772	1611.38977	175.66208	363.38373	1462.68164	249.52374	536.40057	1078.53406	404.19592	596.52643	1107.17822	359.17065	-69.81761	160.40288	343.77344	382.61804	1421.82495	95.2136	288.5802	1315.36108	353.40555	468.95837	264.16241	172.80772	-87.5526	315.13245	347.81271	481.83975	1067.41577	77.7727	472.25961	94.46232	228.78722	-125.28764	343.50323	304.38708	293.01944	1151.40723	287.54843	430.42801	91.18755	271.57828	616.63208	35.22252	261.27045	501.34927	1663.5946	178.23412	284.11816	1012.20007	200.67636	296.6781	1007.12579	365.88223	269.20956	1286.91968	6.00698	205.01044	1204.42725	-19.6209	302.58832	1118.21387	0.23229	393.96936	1065.81604	51.13097	NaN	NaN	NaN	NaN	NaN	NaN	400.82837	1705.63232	234.06544	NaN	NaN	NaN	NaN	NaN	NaN	NaN	NaN	NaN	NaN	NaN	NaN	NaN	NaN	NaN	NaN	NaN	NaN	NaN	NaN	NaN
67	0.66	516.33362	508.48001	147.83789	143.84752	368.43796	388.36386	481.32211	1104.50208	502.60101	556.19739	1118.66089	383.27963	461.91647	660.83276	113.03183	373.49377	483.64218	393.28958	410.97812	1161.83838	559.1665	534.32153	1647.62891	310.27664	453.98001	1119.78442	82.48975	420.04877	1270.41418	526.29315	528.77686	1188.16113	241.28702	474.46646	955.02673	382.81042	503.81165	1368.18762	238.5024	480.23264	1417.53064	394.67175	473.65631	958.95258	167.37581	382.04059	611.16058	418.89505	401.72955	1599.95654	304.00974	405.17365	1602.26782	174.42767	400.97528	1453.73718	247.64888	568.31671	1060.50623	411.86292	631.24158	1085.3429	369.10852	-10.64478	158.67407	350.82535	423.17703	1411.46216	93.37768	325.08612	1307.32593	351.1969	485.63379	251.22194	172.32985	-30.61578	311.76141	352.82355	529.49817	1060.00488	82.88972	477.34409	83.89295	229.96887	-69.04133	339.94458	309.32162	330.78909	1142.92322	287.18069	429.53488	80.3247	268.40356	618.84216	34.67727	265.21326	538.49084	1655.58191	178.04472	321.97989	1003.39203	201.94548	333.6442	998.58704	367.64117	314.39825	1272.3009	3.14443	252.16756	1188.61218	-22.42137	350.72116	1105.33691	0.8536	442.276	1056.09521	54.46508	NaN	NaN	NaN	NaN	NaN	NaN	437.11996	1696.93311	232.83252	NaN	NaN	NaN	NaN	NaN	NaN	NaN	NaN	NaN	NaN	NaN	NaN	NaN	NaN	NaN	NaN	NaN	NaN	NaN	NaN	NaN
